<svg xmlns="http://www.w3.org/2000/svg" xmlns:xlink="http://www.w3.org/1999/xlink" width="500" zoomAndPan="magnify" viewBox="0 0 375 106.499997" height="142" preserveAspectRatio="xMidYMid meet" version="1.0"><defs><g/><clipPath id="id1"><path d="M 16.304688 8.105469 L 91.699219 8.105469 L 91.699219 97.683594 L 16.304688 97.683594 Z M 16.304688 8.105469 " clip-rule="nonzero"/></clipPath></defs><g fill="#000000" fill-opacity="1"><g transform="translate(113.333953, 84.020115)"><g><path d="M 33.441406 -38.894531 C 31.625 -38.894531 30.109375 -37.5 30.109375 -35.683594 L 30.109375 -22.414062 L 11.085938 -22.414062 L 11.085938 -35.683594 C 11.085938 -37.5 9.570312 -38.894531 7.753906 -38.894531 C 5.9375 -38.894531 4.484375 -37.5 4.484375 -35.683594 L 4.484375 -3.269531 C 4.484375 -1.453125 5.9375 0 7.753906 0 C 9.570312 0 11.085938 -1.453125 11.085938 -3.269531 L 11.085938 -16.355469 L 30.109375 -16.355469 L 30.109375 -3.269531 C 30.109375 -1.453125 31.5625 0 33.382812 0 C 35.199219 0 36.652344 -1.453125 36.652344 -3.269531 L 36.652344 -35.683594 C 36.652344 -37.5 35.257812 -38.894531 33.441406 -38.894531 Z M 33.441406 -38.894531 "/></g></g></g><g fill="#000000" fill-opacity="1"><g transform="translate(154.468419, 84.020115)"><g><path d="M 7.753906 0 C 9.570312 0 11.085938 -1.453125 11.085938 -3.269531 L 11.085938 -27.203125 L 21.082031 -14.964844 C 22.414062 -13.632812 24.050781 -13.632812 25.382812 -14.964844 L 35.378906 -27.203125 L 35.378906 -3.269531 C 35.378906 -1.453125 36.894531 0 38.652344 0 C 40.46875 0 41.921875 -1.453125 41.921875 -3.269531 L 41.921875 -35.5625 C 41.921875 -37.378906 40.46875 -38.773438 38.652344 -38.773438 C 37.984375 -38.773438 37.078125 -38.53125 36.289062 -37.863281 L 23.265625 -22.171875 L 10.117188 -37.804688 C 9.449219 -38.53125 8.542969 -38.832031 7.695312 -38.832031 C 5.996094 -38.832031 4.484375 -37.5625 4.484375 -35.5625 L 4.484375 -3.269531 C 4.484375 -1.453125 5.9375 0 7.753906 0 Z M 7.753906 0 "/></g></g></g><g fill="#000000" fill-opacity="1"><g transform="translate(200.873434, 84.020115)"><g><path d="M 3.574219 -38.773438 C 1.757812 -38.773438 0.304688 -37.320312 0.304688 -35.5 C 0.304688 -34.167969 1.757812 -32.652344 3.574219 -32.652344 L 12.660156 -32.652344 L 12.660156 -3.269531 C 12.660156 -1.453125 14.117188 0 15.933594 0 C 17.75 0 19.265625 -1.453125 19.265625 -3.269531 L 19.265625 -32.652344 L 28.292969 -32.652344 C 30.171875 -32.652344 31.625 -34.109375 31.625 -35.5625 C 31.625 -37.320312 30.171875 -38.773438 28.292969 -38.773438 Z M 3.574219 -38.773438 "/></g></g></g><g fill="#000000" fill-opacity="1"><g transform="translate(232.799598, 84.020115)"><g/></g></g><g fill="#000000" fill-opacity="1"><g transform="translate(247.884256, 84.020115)"><g><path d="M 22.234375 0.546875 C 27.324219 0.546875 31.746094 -1.03125 35.804688 -4.726562 C 37.136719 -5.996094 37.5 -7.875 36.472656 -9.269531 C 35.441406 -10.664062 33.261719 -10.542969 31.804688 -9.449219 C 29.140625 -7.089844 25.988281 -5.753906 22.234375 -5.753906 C 14.84375 -5.753906 9.328125 -11.996094 9.328125 -19.386719 C 9.328125 -27.445312 15.265625 -33.078125 22.355469 -33.078125 C 25.988281 -33.078125 29.140625 -31.625 31.804688 -29.199219 C 33.261719 -28.171875 35.441406 -27.988281 36.472656 -29.441406 C 37.5 -30.835938 37.199219 -32.773438 35.804688 -33.988281 C 31.804688 -37.621094 27.445312 -39.316406 22.050781 -39.316406 C 10.964844 -39.316406 2.726562 -29.6875 2.726562 -19.324219 C 2.726562 -8.480469 11.570312 0.546875 22.234375 0.546875 Z M 22.234375 0.546875 "/></g></g></g><g fill="#000000" fill-opacity="1"><g transform="translate(287.746523, 84.020115)"><g><path d="M 7.753906 0 C 9.570312 0 11.085938 -1.453125 11.085938 -3.269531 L 11.085938 -27.203125 L 21.082031 -14.964844 C 22.414062 -13.632812 24.050781 -13.632812 25.382812 -14.964844 L 35.378906 -27.203125 L 35.378906 -3.269531 C 35.378906 -1.453125 36.894531 0 38.652344 0 C 40.46875 0 41.921875 -1.453125 41.921875 -3.269531 L 41.921875 -35.5625 C 41.921875 -37.378906 40.46875 -38.773438 38.652344 -38.773438 C 37.984375 -38.773438 37.078125 -38.53125 36.289062 -37.863281 L 23.265625 -22.171875 L 10.117188 -37.804688 C 9.449219 -38.53125 8.542969 -38.832031 7.695312 -38.832031 C 5.996094 -38.832031 4.484375 -37.5625 4.484375 -35.5625 L 4.484375 -3.269531 C 4.484375 -1.453125 5.9375 0 7.753906 0 Z M 7.753906 0 "/></g></g></g><g fill="#000000" fill-opacity="1"><g transform="translate(334.151538, 84.020115)"><g><path d="M 15.085938 0.546875 C 23.019531 0.546875 28.777344 -4.421875 28.777344 -11.269531 C 28.777344 -17.8125 23.144531 -20.597656 15.933594 -23.265625 C 13.207031 -24.292969 9.8125 -25.625 9.8125 -29.019531 C 9.8125 -31.988281 12.296875 -33.078125 14.78125 -33.078125 C 17.691406 -33.078125 20.175781 -32.289062 21.871094 -30.414062 C 23.445312 -28.898438 25.382812 -29.320312 26.292969 -30.230469 C 27.082031 -30.957031 27.625 -32.410156 26.898438 -33.625 C 24.597656 -37.378906 19.933594 -39.316406 15.207031 -39.316406 C 8.601562 -39.316406 3.394531 -35.621094 3.394531 -28.835938 C 3.394531 -22.171875 8.664062 -19.507812 14.660156 -17.207031 C 19.265625 -15.449219 22.171875 -14.117188 22.171875 -11.269531 C 22.171875 -7.332031 19.386719 -5.695312 15.75 -5.695312 C 11.875 -5.695312 9.148438 -7.210938 7.875 -9.207031 C 6.90625 -10.542969 5.875 -10.722656 5.027344 -10.722656 C 2.605469 -10.722656 1.210938 -8.117188 2.605469 -5.9375 C 4.484375 -2.726562 8.722656 0.546875 15.085938 0.546875 Z M 15.085938 0.546875 "/></g></g></g><path fill="#486cc1" d="M 63.007812 49.019531 C 60.773438 49.019531 58.910156 50.570312 58.40625 52.644531 L 49.597656 52.644531 C 49.09375 50.570312 47.230469 49.019531 44.996094 49.019531 C 42.375 49.019531 40.242188 51.148438 40.242188 53.757812 C 40.242188 56.375 42.375 58.503906 44.996094 58.503906 C 47.230469 58.503906 49.09375 56.957031 49.597656 54.871094 L 58.40625 54.871094 C 58.910156 56.957031 60.773438 58.503906 63.007812 58.503906 C 65.621094 58.503906 67.753906 56.375 67.753906 53.757812 C 67.753906 51.148438 65.621094 49.019531 63.007812 49.019531 " fill-opacity="1" fill-rule="nonzero"/><g clip-path="url(#id1)"><path fill="#486cc1" d="M 85.027344 87.597656 L 22.96875 87.597656 C 21.929688 86.742188 20.957031 85.816406 20.019531 84.867188 L 87.972656 84.867188 C 87.035156 85.816406 86.066406 86.742188 85.027344 87.597656 Z M 66.714844 72.109375 C 63.332031 73.960938 58.820312 74.972656 53.996094 74.972656 C 49.183594 74.972656 44.660156 73.960938 41.289062 72.109375 L 42.363281 70.160156 C 45.375 71.796875 49.621094 72.746094 53.996094 72.746094 C 58.382812 72.746094 62.628906 71.796875 65.632812 70.160156 Z M 25.902344 51.640625 C 25.902344 46.203125 30.335938 41.777344 35.785156 41.777344 L 72.207031 41.777344 C 77.65625 41.777344 82.089844 46.203125 82.089844 51.640625 L 82.089844 65.746094 L 25.902344 65.746094 Z M 27.367188 12.949219 C 27.367188 11.503906 28.550781 10.332031 29.992188 10.332031 C 31.441406 10.332031 32.625 11.503906 32.625 12.949219 L 32.625 30.691406 C 30.792969 31.480469 29.042969 32.375 27.367188 33.355469 Z M 75.378906 13.050781 C 75.378906 11.601562 76.5625 10.421875 78.003906 10.421875 C 79.453125 10.421875 80.636719 11.601562 80.636719 13.050781 L 80.636719 33.355469 C 78.953125 32.375 77.199219 31.480469 75.378906 30.691406 Z M 91.402344 42.191406 C 88.96875 39.359375 86.085938 36.875 82.871094 34.746094 L 82.871094 13.050781 C 82.871094 10.375 80.683594 8.191406 78.003906 8.191406 C 75.324219 8.191406 73.144531 10.375 73.144531 13.050781 L 73.144531 29.800781 C 67.214844 27.570312 60.707031 26.367188 53.996094 26.367188 C 47.296875 26.367188 40.777344 27.570312 34.859375 29.800781 L 34.859375 12.949219 C 34.859375 10.277344 32.667969 8.105469 29.992188 8.105469 C 27.3125 8.105469 25.132812 10.277344 25.132812 12.949219 L 25.132812 34.746094 C 21.917969 36.875 19.023438 39.359375 16.589844 42.191406 L 16.324219 42.503906 L 16.324219 84.167969 L 16.589844 84.480469 C 18.175781 86.316406 19.953125 88.03125 21.871094 89.582031 L 22.183594 89.828125 L 30.949219 89.828125 L 30.949219 97.683594 L 77.054688 97.683594 L 77.054688 89.828125 L 85.820312 89.828125 L 86.132812 89.582031 C 88.039062 88.03125 89.816406 86.316406 91.402344 84.480469 L 91.679688 84.167969 L 91.679688 42.503906 L 91.402344 42.191406 " fill-opacity="1" fill-rule="nonzero"/></g></svg>