<?xml version="1.0" standalone="no"?>
<!DOCTYPE svg PUBLIC "-//W3C//DTD SVG 20010904//EN"
 "http://www.w3.org/TR/2001/REC-SVG-20010904/DTD/svg10.dtd">
<svg version="1.0" xmlns="http://www.w3.org/2000/svg"
 width="404.000000pt" height="403.000000pt" viewBox="0 0 404.000000 403.000000"
 preserveAspectRatio="xMidYMid meet">

<g transform="translate(0.000000,403.000000) scale(0.100000,-0.100000)"
fill="#000000" stroke="none">
<path d="M700 3835 c-185 -40 -367 -180 -449 -345 -81 -165 -75 -49 -79 -1415
-2 -844 0 -1246 8 -1303 36 -273 217 -485 485 -568 57 -18 119 -19 1340 -19
l1280 0 75 23 c116 36 195 85 286 177 63 63 91 100 123 166 74 150 71 79 71
1464 0 1381 3 1314 -69 1460 -83 167 -212 278 -401 347 l-65 23 -1270 2
c-1058 1 -1281 -1 -1335 -12z m1610 -305 c145 -41 249 -119 303 -227 67 -133
61 -309 -16 -446 -77 -136 -213 -263 -522 -482 -130 -92 -268 -198 -308 -236
l-72 -68 405 0 c223 0 434 4 469 9 76 11 103 32 130 104 17 47 21 51 55 54
l36 3 0 -138 c0 -76 3 -216 7 -312 6 -169 6 -174 -13 -166 -10 5 -368 12 -794
15 l-775 5 -3 28 c-4 36 19 63 230 259 412 382 583 625 635 903 19 99 13 258
-13 330 -23 64 -93 134 -159 158 -112 41 -266 29 -389 -29 -57 -27 -173 -129
-224 -197 -22 -30 -21 -30 -80 9 -9 6 82 125 134 178 125 125 241 196 385 236
120 33 184 39 349 35 121 -2 171 -8 230 -25z m-472 -2248 c66 -4 59 -22 -9
-22 l-49 0 0 -184 c0 -154 3 -187 16 -200 22 -22 40 -20 62 9 22 28 32 32 32
11 0 -27 -42 -66 -83 -77 -59 -16 -111 2 -134 44 -14 26 -18 67 -21 215 l-4
182 -34 0 c-19 0 -34 5 -34 10 0 6 16 10 35 10 l35 0 0 60 c0 59 1 60 28 61
15 0 43 6 62 12 l35 12 5 -70 5 -70 53 -3z m-376 -10 c50 -29 63 -102 28 -159
-10 -18 -63 -65 -117 -105 l-98 -73 110 -3 c103 -3 111 -1 128 19 10 12 19 20
21 18 2 -2 6 -37 8 -76 l5 -72 -191 6 c-105 3 -193 7 -195 9 -2 2 33 42 78 89
122 128 163 235 109 292 -33 35 -97 32 -141 -7 -36 -31 -47 -36 -47 -21 0 10
47 58 76 78 52 34 172 37 226 5z m771 -1 c34 -19 67 -85 67 -134 l0 -37 -120
0 -120 0 0 -55 c0 -63 17 -103 56 -134 45 -35 114 -22 157 29 10 12 21 20 24
17 9 -9 -7 -46 -34 -77 -93 -111 -284 -74 -325 63 -22 72 -17 184 11 240 49
99 189 143 284 88z m537 -7 c24 -24 25 -28 30 -210 5 -190 8 -203 48 -204 6 0
12 -4 12 -10 0 -6 -45 -10 -115 -10 -70 0 -115 4 -115 10 0 6 6 10 14 10 23 0
26 24 26 205 0 191 -3 199 -61 193 -57 -6 -72 -40 -77 -177 -6 -150 3 -211 29
-218 49 -13 9 -23 -96 -23 -70 0 -115 4 -115 10 0 6 9 10 20 10 28 0 31 22 28
220 -3 171 -4 175 -25 185 -37 16 -26 25 30 25 28 0 69 3 90 6 l37 7 0 -37 0
-38 30 31 c54 54 162 61 210 15z"/>
<path d="M2081 1227 c-12 -24 -21 -58 -21 -75 l0 -32 66 0 67 0 -6 54 c-7 68
-24 96 -59 96 -21 0 -30 -8 -47 -43z"/>
</g>
</svg>
